<svg width="28" height="29" viewBox="0 0 28 29" fill="none" xmlns="http://www.w3.org/2000/svg">
<path opacity="0.1" fill-rule="evenodd" clip-rule="evenodd" d="M0 14.4153C0 6.6833 6.26801 0.415283 14 0.415283C21.732 0.415283 28 6.6833 28 14.4153C28 22.1473 21.732 28.4153 14 28.4153C6.26801 28.4153 0 22.1473 0 14.4153Z" fill="white"/>
<path d="M16.9167 8.58203H15.1667C14.3931 8.58203 13.6513 8.88932 13.1043 9.4363C12.5573 9.98328 12.25 10.7251 12.25 11.4987V13.2487H10.5V15.582H12.25V20.2487H14.5833V15.582H16.3333L16.9167 13.2487H14.5833V11.4987C14.5833 11.344 14.6448 11.1956 14.7542 11.0862C14.8636 10.9768 15.012 10.9154 15.1667 10.9154H16.9167V8.58203Z" stroke="white" stroke-linecap="round" stroke-linejoin="round"/>
</svg>
