<svg width="28" height="28" viewBox="0 0 28 28" fill="none" xmlns="http://www.w3.org/2000/svg">
<path opacity="0.1" fill-rule="evenodd" clip-rule="evenodd" d="M0 14C0 6.26801 6.26801 0 14 0C21.732 0 28 6.26801 28 14C28 21.732 21.732 28 14 28C6.26801 28 0 21.732 0 14Z" fill="white"/>
<path fill-rule="evenodd" clip-rule="evenodd" d="M14.0007 6.5332C11.9729 6.5332 11.7184 6.54207 10.9219 6.57831C10.127 6.61472 9.58443 6.74056 9.10966 6.92521C8.61857 7.11592 8.20199 7.37103 7.78696 7.78622C7.37162 8.20124 7.11651 8.61782 6.92517 9.10876C6.74006 9.58368 6.61406 10.1264 6.57828 10.921C6.54266 11.7175 6.53333 11.9721 6.53333 13.9999C6.53333 16.0278 6.54235 16.2815 6.57844 17.078C6.61499 17.8729 6.74084 18.4154 6.92533 18.8902C7.1162 19.3813 7.37131 19.7979 7.78649 20.2129C8.20137 20.6282 8.61795 20.884 9.10873 21.0747C9.5838 21.2593 10.1265 21.3852 10.9213 21.4216C11.7177 21.4578 11.9721 21.4667 13.9998 21.4667C16.0278 21.4667 16.2815 21.4578 17.0779 21.4216C17.8728 21.3852 18.416 21.2593 18.8911 21.0747C19.382 20.884 19.798 20.6282 20.2129 20.2129C20.6282 19.7979 20.8833 19.3813 21.0747 18.8904C21.2582 18.4154 21.3842 17.8727 21.4216 17.0781C21.4573 16.2817 21.4667 16.0278 21.4667 13.9999C21.4667 11.9721 21.4573 11.7176 21.4216 10.9212C21.3842 10.1263 21.2582 9.58368 21.0747 9.10892C20.8833 8.61782 20.6282 8.20124 20.2129 7.78622C19.7975 7.37088 19.3822 7.11576 18.8906 6.92521C18.4146 6.74056 17.8717 6.61472 17.0768 6.57831C16.2804 6.54207 16.0268 6.5332 13.9984 6.5332H14.0007ZM13.3308 7.87875C13.5296 7.87844 13.7515 7.87875 14.0007 7.87875C15.9943 7.87875 16.2306 7.88591 17.0179 7.92169C17.7459 7.95497 18.141 8.07662 18.4042 8.17882C18.7526 8.31416 19.001 8.47594 19.2622 8.73727C19.5236 8.99861 19.6853 9.2475 19.821 9.59595C19.9232 9.85884 20.045 10.254 20.0781 10.982C20.1139 11.7691 20.1217 12.0055 20.1217 13.9982C20.1217 15.9909 20.1139 16.2273 20.0781 17.0145C20.0448 17.7425 19.9232 18.1376 19.821 18.4005C19.6857 18.7489 19.5236 18.997 19.2622 19.2582C19.0009 19.5196 18.7528 19.6813 18.4042 19.8167C18.1413 19.9193 17.7459 20.0407 17.0179 20.074C16.2307 20.1097 15.9943 20.1175 14.0007 20.1175C12.0069 20.1175 11.7706 20.1097 10.9835 20.074C10.2555 20.0404 9.86035 19.9187 9.59699 19.8165C9.24854 19.6812 8.99965 19.5194 8.73832 19.2581C8.47698 18.9967 8.3152 18.7485 8.17956 18.3999C8.07735 18.137 7.95555 17.7419 7.92242 17.0138C7.88664 16.2267 7.87949 15.9903 7.87949 13.9963C7.87949 12.0024 7.88664 11.7672 7.92242 10.9801C7.95571 10.2521 8.07735 9.85697 8.17956 9.59377C8.31489 9.24532 8.47698 8.99643 8.73832 8.73509C8.99965 8.47376 9.24854 8.31198 9.59699 8.17633C9.8602 8.07366 10.2555 7.95233 10.9835 7.91889C11.6723 7.88777 11.9392 7.87844 13.3308 7.87688V7.87875ZM17.9864 9.11854C17.4917 9.11854 17.0903 9.51942 17.0903 10.0142C17.0903 10.5089 17.4917 10.9103 17.9864 10.9103C18.481 10.9103 18.8824 10.5089 18.8824 10.0142C18.8824 9.51957 18.481 9.11854 17.9864 9.11854ZM14.0007 10.1654C11.8831 10.1654 10.1662 11.8823 10.1662 13.9999C10.1662 16.1175 11.8831 17.8336 14.0007 17.8336C16.1183 17.8336 17.8346 16.1175 17.8346 13.9999C17.8346 11.8823 16.1183 10.1654 14.0007 10.1654ZM14.0007 11.511C15.3752 11.511 16.4896 12.6253 16.4896 13.9999C16.4896 15.3744 15.3752 16.4888 14.0007 16.4888C12.626 16.4888 11.5118 15.3744 11.5118 13.9999C11.5118 12.6253 12.626 11.511 14.0007 11.511Z" fill="white"/>
</svg>
